<mxfile host="app.diagrams.net" modified="2023-04-16T14:59:38.075Z" agent="Mozilla/5.0 (Windows NT 10.0; Win64; x64) AppleWebKit/537.36 (KHTML, like Gecko) Chrome/112.0.0.0 Safari/537.36" etag="a7B86_tiruCGkbQ558HE" version="21.1.7" type="device" pages="3">
  <diagram name="Trang-1" id="6FtUAjifn78EaTAAuiET">
    <mxGraphModel dx="3407" dy="2251" grid="1" gridSize="10" guides="1" tooltips="1" connect="1" arrows="1" fold="1" page="1" pageScale="1" pageWidth="827" pageHeight="1169" background="#FFFFFF" math="0" shadow="0">
      <root>
        <mxCell id="0" />
        <mxCell id="1" parent="0" />
        <mxCell id="lCYEwEg9oiP1OCXS0-rL-14" value="Graph" style="swimlane;fontStyle=1;align=center;verticalAlign=top;childLayout=stackLayout;horizontal=1;startSize=26;horizontalStack=0;resizeParent=1;resizeParentMax=0;resizeLast=0;collapsible=1;marginBottom=0;whiteSpace=wrap;html=1;" parent="1" vertex="1">
          <mxGeometry x="180" y="670" width="370" height="502" as="geometry" />
        </mxCell>
        <mxCell id="lCYEwEg9oiP1OCXS0-rL-15" value="-&amp;nbsp;adjacencyList:&amp;nbsp;Map&amp;lt;Vertex, List&amp;lt;Edge&amp;gt;&amp;gt;" style="text;strokeColor=none;fillColor=none;align=left;verticalAlign=top;spacingLeft=4;spacingRight=4;overflow=hidden;rotatable=0;points=[[0,0.5],[1,0.5]];portConstraint=eastwest;whiteSpace=wrap;html=1;" parent="lCYEwEg9oiP1OCXS0-rL-14" vertex="1">
          <mxGeometry y="26" width="370" height="26" as="geometry" />
        </mxCell>
        <mxCell id="WuYdYey0Z6FS718gPj1q-47" value="- adjacencyMatrix: int[][]" style="text;strokeColor=none;fillColor=none;align=left;verticalAlign=top;spacingLeft=4;spacingRight=4;overflow=hidden;rotatable=0;points=[[0,0.5],[1,0.5]];portConstraint=eastwest;whiteSpace=wrap;html=1;" vertex="1" parent="lCYEwEg9oiP1OCXS0-rL-14">
          <mxGeometry y="52" width="370" height="26" as="geometry" />
        </mxCell>
        <mxCell id="lCYEwEg9oiP1OCXS0-rL-16" value="" style="line;strokeWidth=1;fillColor=none;align=left;verticalAlign=middle;spacingTop=-1;spacingLeft=3;spacingRight=3;rotatable=0;labelPosition=right;points=[];portConstraint=eastwest;strokeColor=inherit;" parent="lCYEwEg9oiP1OCXS0-rL-14" vertex="1">
          <mxGeometry y="78" width="370" height="8" as="geometry" />
        </mxCell>
        <mxCell id="lCYEwEg9oiP1OCXS0-rL-17" value="+ addVertex(Vertex vertex): void" style="text;strokeColor=none;fillColor=none;align=left;verticalAlign=top;spacingLeft=4;spacingRight=4;overflow=hidden;rotatable=0;points=[[0,0.5],[1,0.5]];portConstraint=eastwest;whiteSpace=wrap;html=1;" parent="lCYEwEg9oiP1OCXS0-rL-14" vertex="1">
          <mxGeometry y="86" width="370" height="26" as="geometry" />
        </mxCell>
        <mxCell id="WuYdYey0Z6FS718gPj1q-48" value="+ removeVertex(Vertex vertex): void" style="text;strokeColor=none;fillColor=none;align=left;verticalAlign=top;spacingLeft=4;spacingRight=4;overflow=hidden;rotatable=0;points=[[0,0.5],[1,0.5]];portConstraint=eastwest;whiteSpace=wrap;html=1;" vertex="1" parent="lCYEwEg9oiP1OCXS0-rL-14">
          <mxGeometry y="112" width="370" height="26" as="geometry" />
        </mxCell>
        <mxCell id="WuYdYey0Z6FS718gPj1q-49" value="+ getEdges(Vertex vertex): List&amp;lt;Edge&amp;gt;" style="text;strokeColor=none;fillColor=none;align=left;verticalAlign=top;spacingLeft=4;spacingRight=4;overflow=hidden;rotatable=0;points=[[0,0.5],[1,0.5]];portConstraint=eastwest;whiteSpace=wrap;html=1;" vertex="1" parent="lCYEwEg9oiP1OCXS0-rL-14">
          <mxGeometry y="138" width="370" height="26" as="geometry" />
        </mxCell>
        <mxCell id="WuYdYey0Z6FS718gPj1q-50" value="+&amp;nbsp;getAdjacencyList&lt;span style=&quot;background-color: initial;&quot;&gt;(): Map&amp;lt;Vertex, List&amp;lt;Edge&amp;gt;&amp;gt;&lt;/span&gt;" style="text;strokeColor=none;fillColor=none;align=left;verticalAlign=top;spacingLeft=4;spacingRight=4;overflow=hidden;rotatable=0;points=[[0,0.5],[1,0.5]];portConstraint=eastwest;whiteSpace=wrap;html=1;" vertex="1" parent="lCYEwEg9oiP1OCXS0-rL-14">
          <mxGeometry y="164" width="370" height="26" as="geometry" />
        </mxCell>
        <mxCell id="WuYdYey0Z6FS718gPj1q-51" value="+&amp;nbsp;getVertices&lt;span style=&quot;background-color: initial;&quot;&gt;(): ArrayList&amp;lt;Vertex&amp;gt;&lt;/span&gt;" style="text;strokeColor=none;fillColor=none;align=left;verticalAlign=top;spacingLeft=4;spacingRight=4;overflow=hidden;rotatable=0;points=[[0,0.5],[1,0.5]];portConstraint=eastwest;whiteSpace=wrap;html=1;" vertex="1" parent="lCYEwEg9oiP1OCXS0-rL-14">
          <mxGeometry y="190" width="370" height="26" as="geometry" />
        </mxCell>
        <mxCell id="WuYdYey0Z6FS718gPj1q-52" value="+&amp;nbsp;countEdges&lt;span style=&quot;background-color: initial;&quot;&gt;(): int&lt;/span&gt;" style="text;strokeColor=none;fillColor=none;align=left;verticalAlign=top;spacingLeft=4;spacingRight=4;overflow=hidden;rotatable=0;points=[[0,0.5],[1,0.5]];portConstraint=eastwest;whiteSpace=wrap;html=1;" vertex="1" parent="lCYEwEg9oiP1OCXS0-rL-14">
          <mxGeometry y="216" width="370" height="26" as="geometry" />
        </mxCell>
        <mxCell id="WuYdYey0Z6FS718gPj1q-53" value="+&amp;nbsp;getEdges&lt;span style=&quot;background-color: initial;&quot;&gt;(): int[][]&lt;/span&gt;" style="text;strokeColor=none;fillColor=none;align=left;verticalAlign=top;spacingLeft=4;spacingRight=4;overflow=hidden;rotatable=0;points=[[0,0.5],[1,0.5]];portConstraint=eastwest;whiteSpace=wrap;html=1;" vertex="1" parent="lCYEwEg9oiP1OCXS0-rL-14">
          <mxGeometry y="242" width="370" height="26" as="geometry" />
        </mxCell>
        <mxCell id="WuYdYey0Z6FS718gPj1q-55" value="+&amp;nbsp;addEdge&lt;span style=&quot;background-color: initial;&quot;&gt;(Edge edge): void&lt;/span&gt;" style="text;strokeColor=none;fillColor=none;align=left;verticalAlign=top;spacingLeft=4;spacingRight=4;overflow=hidden;rotatable=0;points=[[0,0.5],[1,0.5]];portConstraint=eastwest;whiteSpace=wrap;html=1;" vertex="1" parent="lCYEwEg9oiP1OCXS0-rL-14">
          <mxGeometry y="268" width="370" height="26" as="geometry" />
        </mxCell>
        <mxCell id="WuYdYey0Z6FS718gPj1q-56" value="+&amp;nbsp;removeAll&lt;span style=&quot;background-color: initial;&quot;&gt;(): void&lt;/span&gt;" style="text;strokeColor=none;fillColor=none;align=left;verticalAlign=top;spacingLeft=4;spacingRight=4;overflow=hidden;rotatable=0;points=[[0,0.5],[1,0.5]];portConstraint=eastwest;whiteSpace=wrap;html=1;" vertex="1" parent="lCYEwEg9oiP1OCXS0-rL-14">
          <mxGeometry y="294" width="370" height="26" as="geometry" />
        </mxCell>
        <mxCell id="WuYdYey0Z6FS718gPj1q-59" value="+&amp;nbsp;handleAddVertex&lt;span style=&quot;background-color: initial;&quot;&gt;(Point location): void&lt;/span&gt;" style="text;strokeColor=none;fillColor=none;align=left;verticalAlign=top;spacingLeft=4;spacingRight=4;overflow=hidden;rotatable=0;points=[[0,0.5],[1,0.5]];portConstraint=eastwest;whiteSpace=wrap;html=1;" vertex="1" parent="lCYEwEg9oiP1OCXS0-rL-14">
          <mxGeometry y="320" width="370" height="26" as="geometry" />
        </mxCell>
        <mxCell id="WuYdYey0Z6FS718gPj1q-60" value="+&amp;nbsp;handleRemoveVertex&lt;span style=&quot;background-color: initial;&quot;&gt;(Point location): void&lt;/span&gt;" style="text;strokeColor=none;fillColor=none;align=left;verticalAlign=top;spacingLeft=4;spacingRight=4;overflow=hidden;rotatable=0;points=[[0,0.5],[1,0.5]];portConstraint=eastwest;whiteSpace=wrap;html=1;" vertex="1" parent="lCYEwEg9oiP1OCXS0-rL-14">
          <mxGeometry y="346" width="370" height="26" as="geometry" />
        </mxCell>
        <mxCell id="WuYdYey0Z6FS718gPj1q-61" value="+&amp;nbsp;renameVertex&lt;span style=&quot;background-color: initial;&quot;&gt;(Point currentClick): void&lt;/span&gt;" style="text;strokeColor=none;fillColor=none;align=left;verticalAlign=top;spacingLeft=4;spacingRight=4;overflow=hidden;rotatable=0;points=[[0,0.5],[1,0.5]];portConstraint=eastwest;whiteSpace=wrap;html=1;" vertex="1" parent="lCYEwEg9oiP1OCXS0-rL-14">
          <mxGeometry y="372" width="370" height="26" as="geometry" />
        </mxCell>
        <mxCell id="WuYdYey0Z6FS718gPj1q-62" value="+&amp;nbsp;handleAddEdge&lt;span style=&quot;background-color: initial;&quot;&gt;(Point currentClick, Vertex sourceVertex): void&lt;/span&gt;" style="text;strokeColor=none;fillColor=none;align=left;verticalAlign=top;spacingLeft=4;spacingRight=4;overflow=hidden;rotatable=0;points=[[0,0.5],[1,0.5]];portConstraint=eastwest;whiteSpace=wrap;html=1;" vertex="1" parent="lCYEwEg9oiP1OCXS0-rL-14">
          <mxGeometry y="398" width="370" height="26" as="geometry" />
        </mxCell>
        <mxCell id="WuYdYey0Z6FS718gPj1q-63" value="+&amp;nbsp;findVertex&lt;span style=&quot;background-color: initial;&quot;&gt;(Vertex that): Vertex&lt;/span&gt;" style="text;strokeColor=none;fillColor=none;align=left;verticalAlign=top;spacingLeft=4;spacingRight=4;overflow=hidden;rotatable=0;points=[[0,0.5],[1,0.5]];portConstraint=eastwest;whiteSpace=wrap;html=1;" vertex="1" parent="lCYEwEg9oiP1OCXS0-rL-14">
          <mxGeometry y="424" width="370" height="26" as="geometry" />
        </mxCell>
        <mxCell id="WuYdYey0Z6FS718gPj1q-64" value="+&amp;nbsp;findVertex&lt;span style=&quot;background-color: initial;&quot;&gt;(Point that): Vertex&lt;/span&gt;" style="text;strokeColor=none;fillColor=none;align=left;verticalAlign=top;spacingLeft=4;spacingRight=4;overflow=hidden;rotatable=0;points=[[0,0.5],[1,0.5]];portConstraint=eastwest;whiteSpace=wrap;html=1;" vertex="1" parent="lCYEwEg9oiP1OCXS0-rL-14">
          <mxGeometry y="450" width="370" height="26" as="geometry" />
        </mxCell>
        <mxCell id="WuYdYey0Z6FS718gPj1q-65" value="+ drawPath(String[][] res): void" style="text;strokeColor=none;fillColor=none;align=left;verticalAlign=top;spacingLeft=4;spacingRight=4;overflow=hidden;rotatable=0;points=[[0,0.5],[1,0.5]];portConstraint=eastwest;whiteSpace=wrap;html=1;" vertex="1" parent="lCYEwEg9oiP1OCXS0-rL-14">
          <mxGeometry y="476" width="370" height="26" as="geometry" />
        </mxCell>
        <mxCell id="lCYEwEg9oiP1OCXS0-rL-22" value="Vertex" style="swimlane;fontStyle=1;align=center;verticalAlign=top;childLayout=stackLayout;horizontal=1;startSize=26;horizontalStack=0;resizeParent=1;resizeParentMax=0;resizeLast=0;collapsible=1;marginBottom=0;whiteSpace=wrap;html=1;" parent="1" vertex="1">
          <mxGeometry x="-70" y="836" width="200" height="190" as="geometry" />
        </mxCell>
        <mxCell id="lCYEwEg9oiP1OCXS0-rL-23" value="- name: String" style="text;strokeColor=none;fillColor=none;align=left;verticalAlign=top;spacingLeft=4;spacingRight=4;overflow=hidden;rotatable=0;points=[[0,0.5],[1,0.5]];portConstraint=eastwest;whiteSpace=wrap;html=1;" parent="lCYEwEg9oiP1OCXS0-rL-22" vertex="1">
          <mxGeometry y="26" width="200" height="26" as="geometry" />
        </mxCell>
        <mxCell id="WuYdYey0Z6FS718gPj1q-39" value="- location: Point" style="text;strokeColor=none;fillColor=none;align=left;verticalAlign=top;spacingLeft=4;spacingRight=4;overflow=hidden;rotatable=0;points=[[0,0.5],[1,0.5]];portConstraint=eastwest;whiteSpace=wrap;html=1;" vertex="1" parent="lCYEwEg9oiP1OCXS0-rL-22">
          <mxGeometry y="52" width="200" height="26" as="geometry" />
        </mxCell>
        <mxCell id="WuYdYey0Z6FS718gPj1q-40" value="- color: Color" style="text;strokeColor=none;fillColor=none;align=left;verticalAlign=top;spacingLeft=4;spacingRight=4;overflow=hidden;rotatable=0;points=[[0,0.5],[1,0.5]];portConstraint=eastwest;whiteSpace=wrap;html=1;" vertex="1" parent="lCYEwEg9oiP1OCXS0-rL-22">
          <mxGeometry y="78" width="200" height="26" as="geometry" />
        </mxCell>
        <mxCell id="WuYdYey0Z6FS718gPj1q-41" value="+ &amp;lt;&amp;lt;static&amp;gt;&amp;gt; final R: int" style="text;strokeColor=none;fillColor=none;align=left;verticalAlign=top;spacingLeft=4;spacingRight=4;overflow=hidden;rotatable=0;points=[[0,0.5],[1,0.5]];portConstraint=eastwest;whiteSpace=wrap;html=1;" vertex="1" parent="lCYEwEg9oiP1OCXS0-rL-22">
          <mxGeometry y="104" width="200" height="26" as="geometry" />
        </mxCell>
        <mxCell id="lCYEwEg9oiP1OCXS0-rL-24" value="" style="line;strokeWidth=1;fillColor=none;align=left;verticalAlign=middle;spacingTop=-1;spacingLeft=3;spacingRight=3;rotatable=0;labelPosition=right;points=[];portConstraint=eastwest;strokeColor=inherit;" parent="lCYEwEg9oiP1OCXS0-rL-22" vertex="1">
          <mxGeometry y="130" width="200" height="8" as="geometry" />
        </mxCell>
        <mxCell id="lCYEwEg9oiP1OCXS0-rL-25" value="+ isClickAt(Point point): boolean" style="text;strokeColor=none;fillColor=none;align=left;verticalAlign=top;spacingLeft=4;spacingRight=4;overflow=hidden;rotatable=0;points=[[0,0.5],[1,0.5]];portConstraint=eastwest;whiteSpace=wrap;html=1;" parent="lCYEwEg9oiP1OCXS0-rL-22" vertex="1">
          <mxGeometry y="138" width="200" height="26" as="geometry" />
        </mxCell>
        <mxCell id="WuYdYey0Z6FS718gPj1q-42" value="+ move(int x, int y): void" style="text;strokeColor=none;fillColor=none;align=left;verticalAlign=top;spacingLeft=4;spacingRight=4;overflow=hidden;rotatable=0;points=[[0,0.5],[1,0.5]];portConstraint=eastwest;whiteSpace=wrap;html=1;" vertex="1" parent="lCYEwEg9oiP1OCXS0-rL-22">
          <mxGeometry y="164" width="200" height="26" as="geometry" />
        </mxCell>
        <mxCell id="lCYEwEg9oiP1OCXS0-rL-26" value="Edge" style="swimlane;fontStyle=1;align=center;verticalAlign=top;childLayout=stackLayout;horizontal=1;startSize=26;horizontalStack=0;resizeParent=1;resizeParentMax=0;resizeLast=0;collapsible=1;marginBottom=0;whiteSpace=wrap;html=1;" parent="1" vertex="1">
          <mxGeometry x="560" y="888" width="160" height="112" as="geometry" />
        </mxCell>
        <mxCell id="WuYdYey0Z6FS718gPj1q-44" value="- source: Vertex" style="text;strokeColor=none;fillColor=none;align=left;verticalAlign=top;spacingLeft=4;spacingRight=4;overflow=hidden;rotatable=0;points=[[0,0.5],[1,0.5]];portConstraint=eastwest;whiteSpace=wrap;html=1;" vertex="1" parent="lCYEwEg9oiP1OCXS0-rL-26">
          <mxGeometry y="26" width="160" height="26" as="geometry" />
        </mxCell>
        <mxCell id="lCYEwEg9oiP1OCXS0-rL-27" value="- destination: Vertex" style="text;strokeColor=none;fillColor=none;align=left;verticalAlign=top;spacingLeft=4;spacingRight=4;overflow=hidden;rotatable=0;points=[[0,0.5],[1,0.5]];portConstraint=eastwest;whiteSpace=wrap;html=1;" parent="lCYEwEg9oiP1OCXS0-rL-26" vertex="1">
          <mxGeometry y="52" width="160" height="26" as="geometry" />
        </mxCell>
        <mxCell id="WuYdYey0Z6FS718gPj1q-45" value="- weight: int" style="text;strokeColor=none;fillColor=none;align=left;verticalAlign=top;spacingLeft=4;spacingRight=4;overflow=hidden;rotatable=0;points=[[0,0.5],[1,0.5]];portConstraint=eastwest;whiteSpace=wrap;html=1;" vertex="1" parent="lCYEwEg9oiP1OCXS0-rL-26">
          <mxGeometry y="78" width="160" height="26" as="geometry" />
        </mxCell>
        <mxCell id="lCYEwEg9oiP1OCXS0-rL-28" value="" style="line;strokeWidth=1;fillColor=none;align=left;verticalAlign=middle;spacingTop=-1;spacingLeft=3;spacingRight=3;rotatable=0;labelPosition=right;points=[];portConstraint=eastwest;strokeColor=inherit;" parent="lCYEwEg9oiP1OCXS0-rL-26" vertex="1">
          <mxGeometry y="104" width="160" height="8" as="geometry" />
        </mxCell>
        <mxCell id="lCYEwEg9oiP1OCXS0-rL-38" value="dispatch" style="html=1;verticalAlign=bottom;endArrow=block;edgeStyle=elbowEdgeStyle;elbow=vertical;curved=0;rounded=0;textOpacity=0;" parent="1" source="lCYEwEg9oiP1OCXS0-rL-14" target="lCYEwEg9oiP1OCXS0-rL-22" edge="1">
          <mxGeometry x="0.25" y="20" width="80" relative="1" as="geometry">
            <mxPoint x="280" y="210" as="sourcePoint" />
            <mxPoint x="360" y="210" as="targetPoint" />
            <mxPoint as="offset" />
          </mxGeometry>
        </mxCell>
        <mxCell id="lCYEwEg9oiP1OCXS0-rL-40" value="dispatch" style="html=1;verticalAlign=bottom;endArrow=block;edgeStyle=elbowEdgeStyle;elbow=vertical;curved=0;rounded=0;textOpacity=0;" parent="1" source="lCYEwEg9oiP1OCXS0-rL-14" target="lCYEwEg9oiP1OCXS0-rL-26" edge="1">
          <mxGeometry x="0.25" y="20" width="80" relative="1" as="geometry">
            <mxPoint x="250" y="156" as="sourcePoint" />
            <mxPoint x="120" y="230" as="targetPoint" />
            <mxPoint as="offset" />
          </mxGeometry>
        </mxCell>
        <mxCell id="lCYEwEg9oiP1OCXS0-rL-43" value="GraphController" style="swimlane;fontStyle=1;align=center;verticalAlign=top;childLayout=stackLayout;horizontal=1;startSize=26;horizontalStack=0;resizeParent=1;resizeParentMax=0;resizeLast=0;collapsible=1;marginBottom=0;whiteSpace=wrap;html=1;" parent="1" vertex="1">
          <mxGeometry x="220" y="255" width="245" height="376" as="geometry" />
        </mxCell>
        <mxCell id="IncMXRNsBareLpS9UFTI-39" value="- model: Graph" style="text;strokeColor=none;fillColor=none;align=left;verticalAlign=top;spacingLeft=4;spacingRight=4;overflow=hidden;rotatable=0;points=[[0,0.5],[1,0.5]];portConstraint=eastwest;whiteSpace=wrap;html=1;" parent="lCYEwEg9oiP1OCXS0-rL-43" vertex="1">
          <mxGeometry y="26" width="245" height="26" as="geometry" />
        </mxCell>
        <mxCell id="IncMXRNsBareLpS9UFTI-59" value="- view: GraphView" style="text;strokeColor=none;fillColor=none;align=left;verticalAlign=top;spacingLeft=4;spacingRight=4;overflow=hidden;rotatable=0;points=[[0,0.5],[1,0.5]];portConstraint=eastwest;whiteSpace=wrap;html=1;" parent="lCYEwEg9oiP1OCXS0-rL-43" vertex="1">
          <mxGeometry y="52" width="245" height="26" as="geometry" />
        </mxCell>
        <mxCell id="IncMXRNsBareLpS9UFTI-41" value="- observers: List&amp;lt;Observer&amp;gt;&amp;nbsp;" style="text;strokeColor=none;fillColor=none;align=left;verticalAlign=top;spacingLeft=4;spacingRight=4;overflow=hidden;rotatable=0;points=[[0,0.5],[1,0.5]];portConstraint=eastwest;whiteSpace=wrap;html=1;" parent="lCYEwEg9oiP1OCXS0-rL-43" vertex="1">
          <mxGeometry y="78" width="245" height="26" as="geometry" />
        </mxCell>
        <mxCell id="WuYdYey0Z6FS718gPj1q-57" value="- codeExcute: int&amp;nbsp;" style="text;strokeColor=none;fillColor=none;align=left;verticalAlign=top;spacingLeft=4;spacingRight=4;overflow=hidden;rotatable=0;points=[[0,0.5],[1,0.5]];portConstraint=eastwest;whiteSpace=wrap;html=1;" vertex="1" parent="lCYEwEg9oiP1OCXS0-rL-43">
          <mxGeometry y="104" width="245" height="26" as="geometry" />
        </mxCell>
        <mxCell id="lCYEwEg9oiP1OCXS0-rL-45" value="" style="line;strokeWidth=1;fillColor=none;align=left;verticalAlign=middle;spacingTop=-1;spacingLeft=3;spacingRight=3;rotatable=0;labelPosition=right;points=[];portConstraint=eastwest;strokeColor=inherit;" parent="lCYEwEg9oiP1OCXS0-rL-43" vertex="1">
          <mxGeometry y="130" width="245" height="8" as="geometry" />
        </mxCell>
        <mxCell id="IncMXRNsBareLpS9UFTI-44" value="+ GraphController()" style="text;strokeColor=none;fillColor=none;align=left;verticalAlign=top;spacingLeft=4;spacingRight=4;overflow=hidden;rotatable=0;points=[[0,0.5],[1,0.5]];portConstraint=eastwest;whiteSpace=wrap;html=1;" parent="lCYEwEg9oiP1OCXS0-rL-43" vertex="1">
          <mxGeometry y="138" width="245" height="26" as="geometry" />
        </mxCell>
        <mxCell id="IncMXRNsBareLpS9UFTI-45" value="+ renderView(): void" style="text;strokeColor=none;fillColor=none;align=left;verticalAlign=top;spacingLeft=4;spacingRight=4;overflow=hidden;rotatable=0;points=[[0,0.5],[1,0.5]];portConstraint=eastwest;whiteSpace=wrap;html=1;" parent="lCYEwEg9oiP1OCXS0-rL-43" vertex="1">
          <mxGeometry y="164" width="245" height="26" as="geometry" />
        </mxCell>
        <mxCell id="WuYdYey0Z6FS718gPj1q-58" value="+&amp;nbsp;getVertices&lt;span style=&quot;background-color: initial;&quot;&gt;(): ArrayList&amp;lt;Vertex&amp;gt;&lt;/span&gt;" style="text;strokeColor=none;fillColor=none;align=left;verticalAlign=top;spacingLeft=4;spacingRight=4;overflow=hidden;rotatable=0;points=[[0,0.5],[1,0.5]];portConstraint=eastwest;whiteSpace=wrap;html=1;" vertex="1" parent="lCYEwEg9oiP1OCXS0-rL-43">
          <mxGeometry y="190" width="245" height="26" as="geometry" />
        </mxCell>
        <mxCell id="lCYEwEg9oiP1OCXS0-rL-46" value="+ addVertex(Vertex v): void" style="text;strokeColor=none;fillColor=none;align=left;verticalAlign=top;spacingLeft=4;spacingRight=4;overflow=hidden;rotatable=0;points=[[0,0.5],[1,0.5]];portConstraint=eastwest;whiteSpace=wrap;html=1;" parent="lCYEwEg9oiP1OCXS0-rL-43" vertex="1">
          <mxGeometry y="216" width="245" height="26" as="geometry" />
        </mxCell>
        <mxCell id="yN8j2u117YADS8AMJBHa-7" value="+ removeVertex(Vertex v): void" style="text;strokeColor=none;fillColor=none;align=left;verticalAlign=top;spacingLeft=4;spacingRight=4;overflow=hidden;rotatable=0;points=[[0,0.5],[1,0.5]];portConstraint=eastwest;whiteSpace=wrap;html=1;" parent="lCYEwEg9oiP1OCXS0-rL-43" vertex="1">
          <mxGeometry y="242" width="245" height="24" as="geometry" />
        </mxCell>
        <mxCell id="yN8j2u117YADS8AMJBHa-8" value="+ addEdge(Edge&amp;nbsp;e): void" style="text;strokeColor=none;fillColor=none;align=left;verticalAlign=top;spacingLeft=4;spacingRight=4;overflow=hidden;rotatable=0;points=[[0,0.5],[1,0.5]];portConstraint=eastwest;whiteSpace=wrap;html=1;" parent="lCYEwEg9oiP1OCXS0-rL-43" vertex="1">
          <mxGeometry y="266" width="245" height="26" as="geometry" />
        </mxCell>
        <mxCell id="yN8j2u117YADS8AMJBHa-9" value="+ moveVertex(): void" style="text;strokeColor=none;fillColor=none;align=left;verticalAlign=top;spacingLeft=4;spacingRight=4;overflow=hidden;rotatable=0;points=[[0,0.5],[1,0.5]];portConstraint=eastwest;whiteSpace=wrap;html=1;" parent="lCYEwEg9oiP1OCXS0-rL-43" vertex="1">
          <mxGeometry y="292" width="245" height="26" as="geometry" />
        </mxCell>
        <mxCell id="yN8j2u117YADS8AMJBHa-11" value="+ addVertex(Vertex v): void" style="text;strokeColor=none;fillColor=none;align=left;verticalAlign=top;spacingLeft=4;spacingRight=4;overflow=hidden;rotatable=0;points=[[0,0.5],[1,0.5]];portConstraint=eastwest;whiteSpace=wrap;html=1;" parent="lCYEwEg9oiP1OCXS0-rL-43" vertex="1">
          <mxGeometry y="318" width="245" height="26" as="geometry" />
        </mxCell>
        <mxCell id="IncMXRNsBareLpS9UFTI-74" value="+ colorPath(List&amp;lt;Vertex&amp;gt;): void" style="text;strokeColor=none;fillColor=none;align=left;verticalAlign=top;spacingLeft=4;spacingRight=4;overflow=hidden;rotatable=0;points=[[0,0.5],[1,0.5]];portConstraint=eastwest;whiteSpace=wrap;html=1;" parent="lCYEwEg9oiP1OCXS0-rL-43" vertex="1">
          <mxGeometry y="344" width="245" height="32" as="geometry" />
        </mxCell>
        <mxCell id="IncMXRNsBareLpS9UFTI-32" value="" style="edgeStyle=orthogonalEdgeStyle;rounded=0;orthogonalLoop=1;jettySize=auto;html=1;" parent="1" source="lCYEwEg9oiP1OCXS0-rL-48" target="IncMXRNsBareLpS9UFTI-10" edge="1">
          <mxGeometry relative="1" as="geometry">
            <Array as="points">
              <mxPoint x="375" y="-20" />
              <mxPoint x="520" y="-20" />
            </Array>
          </mxGeometry>
        </mxCell>
        <mxCell id="IncMXRNsBareLpS9UFTI-33" value="" style="edgeStyle=orthogonalEdgeStyle;rounded=0;orthogonalLoop=1;jettySize=auto;html=1;" parent="1" source="lCYEwEg9oiP1OCXS0-rL-48" target="IncMXRNsBareLpS9UFTI-18" edge="1">
          <mxGeometry relative="1" as="geometry">
            <Array as="points">
              <mxPoint x="375" y="-20" />
              <mxPoint x="940" y="-20" />
            </Array>
          </mxGeometry>
        </mxCell>
        <mxCell id="IncMXRNsBareLpS9UFTI-34" value="" style="edgeStyle=orthogonalEdgeStyle;rounded=0;orthogonalLoop=1;jettySize=auto;html=1;" parent="1" source="lCYEwEg9oiP1OCXS0-rL-48" target="yN8j2u117YADS8AMJBHa-2" edge="1">
          <mxGeometry relative="1" as="geometry">
            <Array as="points">
              <mxPoint x="375" y="-20" />
              <mxPoint x="710" y="-20" />
            </Array>
          </mxGeometry>
        </mxCell>
        <mxCell id="IncMXRNsBareLpS9UFTI-35" value="" style="edgeStyle=orthogonalEdgeStyle;rounded=0;orthogonalLoop=1;jettySize=auto;html=1;" parent="1" source="lCYEwEg9oiP1OCXS0-rL-48" target="lCYEwEg9oiP1OCXS0-rL-52" edge="1">
          <mxGeometry relative="1" as="geometry">
            <Array as="points">
              <mxPoint x="375" y="-20" />
              <mxPoint x="80" y="-20" />
            </Array>
          </mxGeometry>
        </mxCell>
        <mxCell id="IncMXRNsBareLpS9UFTI-36" value="" style="edgeStyle=orthogonalEdgeStyle;rounded=0;orthogonalLoop=1;jettySize=auto;html=1;" parent="1" source="lCYEwEg9oiP1OCXS0-rL-48" target="IncMXRNsBareLpS9UFTI-14" edge="1">
          <mxGeometry relative="1" as="geometry">
            <Array as="points">
              <mxPoint x="375" y="-20" />
              <mxPoint x="-130" y="-20" />
            </Array>
          </mxGeometry>
        </mxCell>
        <mxCell id="lCYEwEg9oiP1OCXS0-rL-48" value="App" style="swimlane;fontStyle=1;align=center;verticalAlign=top;childLayout=stackLayout;horizontal=1;startSize=26;horizontalStack=0;resizeParent=1;resizeParentMax=0;resizeLast=0;collapsible=1;marginBottom=0;whiteSpace=wrap;html=1;" parent="1" vertex="1">
          <mxGeometry x="260" y="-280" width="230" height="242" as="geometry" />
        </mxCell>
        <mxCell id="lCYEwEg9oiP1OCXS0-rL-49" value="- menuView: MenuView" style="text;strokeColor=none;fillColor=none;align=left;verticalAlign=top;spacingLeft=4;spacingRight=4;overflow=hidden;rotatable=0;points=[[0,0.5],[1,0.5]];portConstraint=eastwest;whiteSpace=wrap;html=1;" parent="lCYEwEg9oiP1OCXS0-rL-48" vertex="1">
          <mxGeometry y="26" width="230" height="26" as="geometry" />
        </mxCell>
        <mxCell id="yN8j2u117YADS8AMJBHa-14" value="- fileView: FileView" style="text;strokeColor=none;fillColor=none;align=left;verticalAlign=top;spacingLeft=4;spacingRight=4;overflow=hidden;rotatable=0;points=[[0,0.5],[1,0.5]];portConstraint=eastwest;whiteSpace=wrap;html=1;" parent="lCYEwEg9oiP1OCXS0-rL-48" vertex="1">
          <mxGeometry y="52" width="230" height="26" as="geometry" />
        </mxCell>
        <mxCell id="IncMXRNsBareLpS9UFTI-1" value="- adjacencyMatrix: AdjacencyMatrix" style="text;strokeColor=none;fillColor=none;align=left;verticalAlign=top;spacingLeft=4;spacingRight=4;overflow=hidden;rotatable=0;points=[[0,0.5],[1,0.5]];portConstraint=eastwest;whiteSpace=wrap;html=1;" parent="lCYEwEg9oiP1OCXS0-rL-48" vertex="1">
          <mxGeometry y="78" width="230" height="26" as="geometry" />
        </mxCell>
        <mxCell id="IncMXRNsBareLpS9UFTI-3" value="- featureView: FeatureView" style="text;strokeColor=none;fillColor=none;align=left;verticalAlign=top;spacingLeft=4;spacingRight=4;overflow=hidden;rotatable=0;points=[[0,0.5],[1,0.5]];portConstraint=eastwest;whiteSpace=wrap;html=1;" parent="lCYEwEg9oiP1OCXS0-rL-48" vertex="1">
          <mxGeometry y="104" width="230" height="26" as="geometry" />
        </mxCell>
        <mxCell id="IncMXRNsBareLpS9UFTI-2" value="- graphView: GraphView" style="text;strokeColor=none;fillColor=none;align=left;verticalAlign=top;spacingLeft=4;spacingRight=4;overflow=hidden;rotatable=0;points=[[0,0.5],[1,0.5]];portConstraint=eastwest;whiteSpace=wrap;html=1;" parent="lCYEwEg9oiP1OCXS0-rL-48" vertex="1">
          <mxGeometry y="130" width="230" height="26" as="geometry" />
        </mxCell>
        <mxCell id="yN8j2u117YADS8AMJBHa-15" value="- notifyView: NotifyView" style="text;strokeColor=none;fillColor=none;align=left;verticalAlign=top;spacingLeft=4;spacingRight=4;overflow=hidden;rotatable=0;points=[[0,0.5],[1,0.5]];portConstraint=eastwest;whiteSpace=wrap;html=1;" parent="lCYEwEg9oiP1OCXS0-rL-48" vertex="1">
          <mxGeometry y="156" width="230" height="26" as="geometry" />
        </mxCell>
        <mxCell id="tEKyhjhBokwVdmgL0sZL-5" value="- graphController: GraphController" style="text;strokeColor=none;fillColor=none;align=left;verticalAlign=top;spacingLeft=4;spacingRight=4;overflow=hidden;rotatable=0;points=[[0,0.5],[1,0.5]];portConstraint=eastwest;whiteSpace=wrap;html=1;" parent="lCYEwEg9oiP1OCXS0-rL-48" vertex="1">
          <mxGeometry y="182" width="230" height="26" as="geometry" />
        </mxCell>
        <mxCell id="lCYEwEg9oiP1OCXS0-rL-50" value="" style="line;strokeWidth=1;fillColor=none;align=left;verticalAlign=middle;spacingTop=-1;spacingLeft=3;spacingRight=3;rotatable=0;labelPosition=right;points=[];portConstraint=eastwest;strokeColor=inherit;" parent="lCYEwEg9oiP1OCXS0-rL-48" vertex="1">
          <mxGeometry y="208" width="230" height="8" as="geometry" />
        </mxCell>
        <mxCell id="lCYEwEg9oiP1OCXS0-rL-51" value="+ init(): void" style="text;strokeColor=none;fillColor=none;align=left;verticalAlign=top;spacingLeft=4;spacingRight=4;overflow=hidden;rotatable=0;points=[[0,0.5],[1,0.5]];portConstraint=eastwest;whiteSpace=wrap;html=1;" parent="lCYEwEg9oiP1OCXS0-rL-48" vertex="1">
          <mxGeometry y="216" width="230" height="26" as="geometry" />
        </mxCell>
        <mxCell id="lCYEwEg9oiP1OCXS0-rL-52" value="FileView" style="swimlane;fontStyle=1;align=center;verticalAlign=top;childLayout=stackLayout;horizontal=1;startSize=26;horizontalStack=0;resizeParent=1;resizeParentMax=0;resizeLast=0;collapsible=1;marginBottom=0;whiteSpace=wrap;html=1;" parent="1" vertex="1">
          <mxGeometry y="20" width="160" height="112" as="geometry" />
        </mxCell>
        <mxCell id="lCYEwEg9oiP1OCXS0-rL-53" value="- saveFileButton: JButton" style="text;strokeColor=none;fillColor=none;align=left;verticalAlign=top;spacingLeft=4;spacingRight=4;overflow=hidden;rotatable=0;points=[[0,0.5],[1,0.5]];portConstraint=eastwest;whiteSpace=wrap;html=1;" parent="lCYEwEg9oiP1OCXS0-rL-52" vertex="1">
          <mxGeometry y="26" width="160" height="26" as="geometry" />
        </mxCell>
        <mxCell id="IncMXRNsBareLpS9UFTI-81" value="- openFileButton: JButton" style="text;strokeColor=none;fillColor=none;align=left;verticalAlign=top;spacingLeft=4;spacingRight=4;overflow=hidden;rotatable=0;points=[[0,0.5],[1,0.5]];portConstraint=eastwest;whiteSpace=wrap;html=1;" parent="lCYEwEg9oiP1OCXS0-rL-52" vertex="1">
          <mxGeometry y="52" width="160" height="26" as="geometry" />
        </mxCell>
        <mxCell id="lCYEwEg9oiP1OCXS0-rL-54" value="" style="line;strokeWidth=1;fillColor=none;align=left;verticalAlign=middle;spacingTop=-1;spacingLeft=3;spacingRight=3;rotatable=0;labelPosition=right;points=[];portConstraint=eastwest;strokeColor=inherit;" parent="lCYEwEg9oiP1OCXS0-rL-52" vertex="1">
          <mxGeometry y="78" width="160" height="8" as="geometry" />
        </mxCell>
        <mxCell id="lCYEwEg9oiP1OCXS0-rL-55" value="+ method(type): type" style="text;strokeColor=none;fillColor=none;align=left;verticalAlign=top;spacingLeft=4;spacingRight=4;overflow=hidden;rotatable=0;points=[[0,0.5],[1,0.5]];portConstraint=eastwest;whiteSpace=wrap;html=1;" parent="lCYEwEg9oiP1OCXS0-rL-52" vertex="1">
          <mxGeometry y="86" width="160" height="26" as="geometry" />
        </mxCell>
        <mxCell id="yN8j2u117YADS8AMJBHa-2" value="GraphView" style="swimlane;fontStyle=1;align=center;verticalAlign=top;childLayout=stackLayout;horizontal=1;startSize=26;horizontalStack=0;resizeParent=1;resizeParentMax=0;resizeLast=0;collapsible=1;marginBottom=0;whiteSpace=wrap;html=1;" parent="1" vertex="1">
          <mxGeometry x="620" y="10" width="220" height="86" as="geometry" />
        </mxCell>
        <mxCell id="tEKyhjhBokwVdmgL0sZL-7" value="- graphController: GraphController" style="text;strokeColor=none;fillColor=none;align=left;verticalAlign=top;spacingLeft=4;spacingRight=4;overflow=hidden;rotatable=0;points=[[0,0.5],[1,0.5]];portConstraint=eastwest;whiteSpace=wrap;html=1;" parent="yN8j2u117YADS8AMJBHa-2" vertex="1">
          <mxGeometry y="26" width="220" height="26" as="geometry" />
        </mxCell>
        <mxCell id="yN8j2u117YADS8AMJBHa-4" value="" style="line;strokeWidth=1;fillColor=none;align=left;verticalAlign=middle;spacingTop=-1;spacingLeft=3;spacingRight=3;rotatable=0;labelPosition=right;points=[];portConstraint=eastwest;strokeColor=inherit;" parent="yN8j2u117YADS8AMJBHa-2" vertex="1">
          <mxGeometry y="52" width="220" height="8" as="geometry" />
        </mxCell>
        <mxCell id="yN8j2u117YADS8AMJBHa-5" value="+ renderView(): void" style="text;strokeColor=none;fillColor=none;align=left;verticalAlign=top;spacingLeft=4;spacingRight=4;overflow=hidden;rotatable=0;points=[[0,0.5],[1,0.5]];portConstraint=eastwest;whiteSpace=wrap;html=1;" parent="yN8j2u117YADS8AMJBHa-2" vertex="1">
          <mxGeometry y="60" width="220" height="26" as="geometry" />
        </mxCell>
        <mxCell id="yN8j2u117YADS8AMJBHa-6" value="dispatch" style="html=1;verticalAlign=bottom;endArrow=block;edgeStyle=elbowEdgeStyle;elbow=vertical;curved=0;rounded=0;textOpacity=0;" parent="1" source="lCYEwEg9oiP1OCXS0-rL-43" target="lCYEwEg9oiP1OCXS0-rL-14" edge="1">
          <mxGeometry x="0.25" y="20" width="80" relative="1" as="geometry">
            <mxPoint x="690" y="814" as="sourcePoint" />
            <mxPoint x="510" y="450" as="targetPoint" />
            <mxPoint as="offset" />
            <Array as="points">
              <mxPoint x="320" y="630" />
              <mxPoint x="170" y="550" />
              <mxPoint x="640" y="390" />
              <mxPoint x="560" y="520" />
              <mxPoint x="650" y="379" />
            </Array>
          </mxGeometry>
        </mxCell>
        <mxCell id="IncMXRNsBareLpS9UFTI-10" value="SearchMenuView" style="swimlane;fontStyle=1;align=center;verticalAlign=top;childLayout=stackLayout;horizontal=1;startSize=26;horizontalStack=0;resizeParent=1;resizeParentMax=0;resizeLast=0;collapsible=1;marginBottom=0;whiteSpace=wrap;html=1;" parent="1" vertex="1">
          <mxGeometry x="420" y="10" width="190" height="60" as="geometry" />
        </mxCell>
        <mxCell id="IncMXRNsBareLpS9UFTI-11" value="- buttonList: List&amp;lt;JButton&amp;gt;" style="text;strokeColor=none;fillColor=none;align=left;verticalAlign=top;spacingLeft=4;spacingRight=4;overflow=hidden;rotatable=0;points=[[0,0.5],[1,0.5]];portConstraint=eastwest;whiteSpace=wrap;html=1;" parent="IncMXRNsBareLpS9UFTI-10" vertex="1">
          <mxGeometry y="26" width="190" height="26" as="geometry" />
        </mxCell>
        <mxCell id="IncMXRNsBareLpS9UFTI-12" value="" style="line;strokeWidth=1;fillColor=none;align=left;verticalAlign=middle;spacingTop=-1;spacingLeft=3;spacingRight=3;rotatable=0;labelPosition=right;points=[];portConstraint=eastwest;strokeColor=inherit;" parent="IncMXRNsBareLpS9UFTI-10" vertex="1">
          <mxGeometry y="52" width="190" height="8" as="geometry" />
        </mxCell>
        <mxCell id="IncMXRNsBareLpS9UFTI-14" value="FeatureView" style="swimlane;fontStyle=1;align=center;verticalAlign=top;childLayout=stackLayout;horizontal=1;startSize=26;horizontalStack=0;resizeParent=1;resizeParentMax=0;resizeLast=0;collapsible=1;marginBottom=0;whiteSpace=wrap;html=1;" parent="1" vertex="1">
          <mxGeometry x="-240" y="20" width="210" height="112" as="geometry" />
        </mxCell>
        <mxCell id="IncMXRNsBareLpS9UFTI-15" value="- featureButton: List&amp;lt;JButton&amp;gt;" style="text;strokeColor=none;fillColor=none;align=left;verticalAlign=top;spacingLeft=4;spacingRight=4;overflow=hidden;rotatable=0;points=[[0,0.5],[1,0.5]];portConstraint=eastwest;whiteSpace=wrap;html=1;" parent="IncMXRNsBareLpS9UFTI-14" vertex="1">
          <mxGeometry y="26" width="210" height="26" as="geometry" />
        </mxCell>
        <mxCell id="tEKyhjhBokwVdmgL0sZL-6" value="- graphController: GraphController" style="text;strokeColor=none;fillColor=none;align=left;verticalAlign=top;spacingLeft=4;spacingRight=4;overflow=hidden;rotatable=0;points=[[0,0.5],[1,0.5]];portConstraint=eastwest;whiteSpace=wrap;html=1;" parent="IncMXRNsBareLpS9UFTI-14" vertex="1">
          <mxGeometry y="52" width="210" height="26" as="geometry" />
        </mxCell>
        <mxCell id="IncMXRNsBareLpS9UFTI-16" value="" style="line;strokeWidth=1;fillColor=none;align=left;verticalAlign=middle;spacingTop=-1;spacingLeft=3;spacingRight=3;rotatable=0;labelPosition=right;points=[];portConstraint=eastwest;strokeColor=inherit;" parent="IncMXRNsBareLpS9UFTI-14" vertex="1">
          <mxGeometry y="78" width="210" height="8" as="geometry" />
        </mxCell>
        <mxCell id="IncMXRNsBareLpS9UFTI-17" value="+ method(type): type" style="text;strokeColor=none;fillColor=none;align=left;verticalAlign=top;spacingLeft=4;spacingRight=4;overflow=hidden;rotatable=0;points=[[0,0.5],[1,0.5]];portConstraint=eastwest;whiteSpace=wrap;html=1;" parent="IncMXRNsBareLpS9UFTI-14" vertex="1">
          <mxGeometry y="86" width="210" height="26" as="geometry" />
        </mxCell>
        <mxCell id="IncMXRNsBareLpS9UFTI-18" value="NotifyView" style="swimlane;fontStyle=1;align=center;verticalAlign=top;childLayout=stackLayout;horizontal=1;startSize=26;horizontalStack=0;resizeParent=1;resizeParentMax=0;resizeLast=0;collapsible=1;marginBottom=0;whiteSpace=wrap;html=1;" parent="1" vertex="1">
          <mxGeometry x="860" y="10" width="240" height="86" as="geometry" />
        </mxCell>
        <mxCell id="tEKyhjhBokwVdmgL0sZL-9" value="- graphController: GraphController" style="text;strokeColor=none;fillColor=none;align=left;verticalAlign=top;spacingLeft=4;spacingRight=4;overflow=hidden;rotatable=0;points=[[0,0.5],[1,0.5]];portConstraint=eastwest;whiteSpace=wrap;html=1;" parent="IncMXRNsBareLpS9UFTI-18" vertex="1">
          <mxGeometry y="26" width="240" height="26" as="geometry" />
        </mxCell>
        <mxCell id="IncMXRNsBareLpS9UFTI-20" value="" style="line;strokeWidth=1;fillColor=none;align=left;verticalAlign=middle;spacingTop=-1;spacingLeft=3;spacingRight=3;rotatable=0;labelPosition=right;points=[];portConstraint=eastwest;strokeColor=inherit;" parent="IncMXRNsBareLpS9UFTI-18" vertex="1">
          <mxGeometry y="52" width="240" height="8" as="geometry" />
        </mxCell>
        <mxCell id="IncMXRNsBareLpS9UFTI-21" value="+ method(type): type" style="text;strokeColor=none;fillColor=none;align=left;verticalAlign=top;spacingLeft=4;spacingRight=4;overflow=hidden;rotatable=0;points=[[0,0.5],[1,0.5]];portConstraint=eastwest;whiteSpace=wrap;html=1;" parent="IncMXRNsBareLpS9UFTI-18" vertex="1">
          <mxGeometry y="60" width="240" height="26" as="geometry" />
        </mxCell>
        <mxCell id="IncMXRNsBareLpS9UFTI-37" value="" style="edgeStyle=orthogonalEdgeStyle;rounded=0;orthogonalLoop=1;jettySize=auto;html=1;" parent="1" source="lCYEwEg9oiP1OCXS0-rL-48" target="IncMXRNsBareLpS9UFTI-22" edge="1">
          <mxGeometry relative="1" as="geometry">
            <mxPoint x="375" y="-39" as="sourcePoint" />
            <mxPoint x="210" y="263" as="targetPoint" />
            <Array as="points">
              <mxPoint x="375" y="-20" />
              <mxPoint x="270" y="-20" />
            </Array>
          </mxGeometry>
        </mxCell>
        <mxCell id="IncMXRNsBareLpS9UFTI-22" value="MatrixView" style="swimlane;fontStyle=1;align=center;verticalAlign=top;childLayout=stackLayout;horizontal=1;startSize=26;horizontalStack=0;resizeParent=1;resizeParentMax=0;resizeLast=0;collapsible=1;marginBottom=0;whiteSpace=wrap;html=1;" parent="1" vertex="1">
          <mxGeometry x="190" y="20" width="220" height="86" as="geometry" />
        </mxCell>
        <mxCell id="IncMXRNsBareLpS9UFTI-23" value="- graphController: GraphController" style="text;strokeColor=none;fillColor=none;align=left;verticalAlign=top;spacingLeft=4;spacingRight=4;overflow=hidden;rotatable=0;points=[[0,0.5],[1,0.5]];portConstraint=eastwest;whiteSpace=wrap;html=1;" parent="IncMXRNsBareLpS9UFTI-22" vertex="1">
          <mxGeometry y="26" width="220" height="26" as="geometry" />
        </mxCell>
        <mxCell id="IncMXRNsBareLpS9UFTI-24" value="" style="line;strokeWidth=1;fillColor=none;align=left;verticalAlign=middle;spacingTop=-1;spacingLeft=3;spacingRight=3;rotatable=0;labelPosition=right;points=[];portConstraint=eastwest;strokeColor=inherit;" parent="IncMXRNsBareLpS9UFTI-22" vertex="1">
          <mxGeometry y="52" width="220" height="8" as="geometry" />
        </mxCell>
        <mxCell id="IncMXRNsBareLpS9UFTI-25" value="+ method(type): type" style="text;strokeColor=none;fillColor=none;align=left;verticalAlign=top;spacingLeft=4;spacingRight=4;overflow=hidden;rotatable=0;points=[[0,0.5],[1,0.5]];portConstraint=eastwest;whiteSpace=wrap;html=1;" parent="IncMXRNsBareLpS9UFTI-22" vertex="1">
          <mxGeometry y="60" width="220" height="26" as="geometry" />
        </mxCell>
        <mxCell id="IncMXRNsBareLpS9UFTI-43" value="dispatch" style="html=1;verticalAlign=bottom;endArrow=block;edgeStyle=elbowEdgeStyle;elbow=vertical;curved=0;rounded=0;textOpacity=0;" parent="1" source="lCYEwEg9oiP1OCXS0-rL-43" target="yN8j2u117YADS8AMJBHa-2" edge="1">
          <mxGeometry x="0.25" y="20" width="80" relative="1" as="geometry">
            <mxPoint x="310" y="240" as="sourcePoint" />
            <mxPoint x="640" y="210" as="targetPoint" />
            <mxPoint as="offset" />
            <Array as="points">
              <mxPoint x="710" y="130" />
            </Array>
          </mxGeometry>
        </mxCell>
        <mxCell id="IncMXRNsBareLpS9UFTI-46" value="&lt;p style=&quot;margin:0px;margin-top:4px;text-align:center;&quot;&gt;&lt;i&gt;&amp;lt;&amp;lt;Interface&amp;gt;&amp;gt;&lt;/i&gt;&lt;/p&gt;&lt;p style=&quot;margin:0px;margin-top:4px;text-align:center;&quot;&gt;&lt;b&gt;PathFindingStrategy&lt;/b&gt;&lt;br&gt;&lt;/p&gt;&lt;hr size=&quot;1&quot;&gt;&lt;p style=&quot;margin:0px;margin-left:4px;&quot;&gt;+ findShortestPath(Type): List&amp;lt;Vertex&amp;gt;&lt;br&gt;&lt;/p&gt;" style="verticalAlign=top;align=left;overflow=fill;fontSize=12;fontFamily=Helvetica;html=1;whiteSpace=wrap;" parent="1" vertex="1">
          <mxGeometry x="690" y="350" width="240" height="78" as="geometry" />
        </mxCell>
        <mxCell id="IncMXRNsBareLpS9UFTI-51" value="BellmanFordSearch" style="swimlane;fontStyle=1;align=center;verticalAlign=top;childLayout=stackLayout;horizontal=1;startSize=26;horizontalStack=0;resizeParent=1;resizeParentMax=0;resizeLast=0;collapsible=1;marginBottom=0;whiteSpace=wrap;html=1;" parent="1" vertex="1">
          <mxGeometry x="637.5" y="528" width="345" height="86" as="geometry" />
        </mxCell>
        <mxCell id="IncMXRNsBareLpS9UFTI-53" value="" style="line;strokeWidth=1;fillColor=none;align=left;verticalAlign=middle;spacingTop=-1;spacingLeft=3;spacingRight=3;rotatable=0;labelPosition=right;points=[];portConstraint=eastwest;strokeColor=inherit;" parent="IncMXRNsBareLpS9UFTI-51" vertex="1">
          <mxGeometry y="26" width="345" height="8" as="geometry" />
        </mxCell>
        <mxCell id="IncMXRNsBareLpS9UFTI-54" value="+ findShortestPath(Type): List&amp;lt;Vertex&amp;gt;" style="text;strokeColor=none;fillColor=none;align=left;verticalAlign=top;spacingLeft=4;spacingRight=4;overflow=hidden;rotatable=0;points=[[0,0.5],[1,0.5]];portConstraint=eastwest;whiteSpace=wrap;html=1;" parent="IncMXRNsBareLpS9UFTI-51" vertex="1">
          <mxGeometry y="34" width="345" height="26" as="geometry" />
        </mxCell>
        <mxCell id="WuYdYey0Z6FS718gPj1q-66" value="- helper(Graph graph, Vertex startVertex, Vertex&amp;nbsp; endVertex)" style="text;strokeColor=none;fillColor=none;align=left;verticalAlign=top;spacingLeft=4;spacingRight=4;overflow=hidden;rotatable=0;points=[[0,0.5],[1,0.5]];portConstraint=eastwest;whiteSpace=wrap;html=1;" vertex="1" parent="IncMXRNsBareLpS9UFTI-51">
          <mxGeometry y="60" width="345" height="26" as="geometry" />
        </mxCell>
        <mxCell id="IncMXRNsBareLpS9UFTI-56" value="" style="endArrow=block;dashed=1;endFill=0;endSize=12;html=1;rounded=0;" parent="1" source="IncMXRNsBareLpS9UFTI-51" target="IncMXRNsBareLpS9UFTI-46" edge="1">
          <mxGeometry width="160" relative="1" as="geometry">
            <mxPoint x="1090" y="350" as="sourcePoint" />
            <mxPoint x="1105" y="310" as="targetPoint" />
          </mxGeometry>
        </mxCell>
        <mxCell id="IncMXRNsBareLpS9UFTI-57" value="dispatch" style="html=1;verticalAlign=bottom;endArrow=block;edgeStyle=elbowEdgeStyle;elbow=vertical;curved=0;rounded=0;textOpacity=0;" parent="1" source="IncMXRNsBareLpS9UFTI-64" target="IncMXRNsBareLpS9UFTI-46" edge="1">
          <mxGeometry x="0.25" y="20" width="80" relative="1" as="geometry">
            <mxPoint x="720" y="220" as="sourcePoint" />
            <mxPoint x="720" y="106" as="targetPoint" />
            <mxPoint as="offset" />
            <Array as="points">
              <mxPoint x="580" y="270" />
              <mxPoint x="490" y="210" />
              <mxPoint x="310" y="180" />
              <mxPoint x="720" y="140" />
            </Array>
          </mxGeometry>
        </mxCell>
        <mxCell id="IncMXRNsBareLpS9UFTI-64" value="SearchMenuController" style="swimlane;fontStyle=1;align=center;verticalAlign=top;childLayout=stackLayout;horizontal=1;startSize=26;horizontalStack=0;resizeParent=1;resizeParentMax=0;resizeLast=0;collapsible=1;marginBottom=0;whiteSpace=wrap;html=1;" parent="1" vertex="1">
          <mxGeometry x="650" y="200" width="270" height="112" as="geometry" />
        </mxCell>
        <mxCell id="IncMXRNsBareLpS9UFTI-58" value="- pathFindingStrategy: PathFindingStrategy" style="text;strokeColor=none;fillColor=none;align=left;verticalAlign=top;spacingLeft=4;spacingRight=4;overflow=hidden;rotatable=0;points=[[0,0.5],[1,0.5]];portConstraint=eastwest;whiteSpace=wrap;html=1;" parent="IncMXRNsBareLpS9UFTI-64" vertex="1">
          <mxGeometry y="26" width="270" height="26" as="geometry" />
        </mxCell>
        <mxCell id="IncMXRNsBareLpS9UFTI-66" value="" style="line;strokeWidth=1;fillColor=none;align=left;verticalAlign=middle;spacingTop=-1;spacingLeft=3;spacingRight=3;rotatable=0;labelPosition=right;points=[];portConstraint=eastwest;strokeColor=inherit;" parent="IncMXRNsBareLpS9UFTI-64" vertex="1">
          <mxGeometry y="52" width="270" height="8" as="geometry" />
        </mxCell>
        <mxCell id="IncMXRNsBareLpS9UFTI-67" value="+ setPathFindingStrategy():&amp;nbsp;&lt;span style=&quot;border-color: var(--border-color); text-align: center;&quot;&gt;PathFindingStrateg&lt;/span&gt;&lt;span style=&quot;border-color: var(--border-color); text-align: center;&quot;&gt;y&lt;/span&gt;" style="text;strokeColor=none;fillColor=none;align=left;verticalAlign=top;spacingLeft=4;spacingRight=4;overflow=hidden;rotatable=0;points=[[0,0.5],[1,0.5]];portConstraint=eastwest;whiteSpace=wrap;html=1;" parent="IncMXRNsBareLpS9UFTI-64" vertex="1">
          <mxGeometry y="60" width="270" height="26" as="geometry" />
        </mxCell>
        <mxCell id="IncMXRNsBareLpS9UFTI-50" value="+ findShortestPath(): List&amp;lt;Vertex&amp;gt;" style="text;strokeColor=none;fillColor=none;align=left;verticalAlign=top;spacingLeft=4;spacingRight=4;overflow=hidden;rotatable=0;points=[[0,0.5],[1,0.5]];portConstraint=eastwest;whiteSpace=wrap;html=1;" parent="IncMXRNsBareLpS9UFTI-64" vertex="1">
          <mxGeometry y="86" width="270" height="26" as="geometry" />
        </mxCell>
        <mxCell id="IncMXRNsBareLpS9UFTI-72" value="dispatch" style="html=1;verticalAlign=bottom;endArrow=block;edgeStyle=elbowEdgeStyle;elbow=vertical;curved=0;rounded=0;textOpacity=0;" parent="1" source="IncMXRNsBareLpS9UFTI-64" target="IncMXRNsBareLpS9UFTI-10" edge="1">
          <mxGeometry x="0.25" y="20" width="80" relative="1" as="geometry">
            <mxPoint x="720" y="220" as="sourcePoint" />
            <mxPoint x="720" y="106" as="targetPoint" />
            <mxPoint as="offset" />
            <Array as="points">
              <mxPoint x="630" y="220" />
              <mxPoint x="620" y="160" />
              <mxPoint x="540" y="110" />
              <mxPoint x="720" y="140" />
            </Array>
          </mxGeometry>
        </mxCell>
        <mxCell id="IncMXRNsBareLpS9UFTI-83" value="dispatch" style="html=1;verticalAlign=bottom;endArrow=block;edgeStyle=elbowEdgeStyle;elbow=vertical;curved=0;rounded=0;textOpacity=0;entryX=0.75;entryY=0;entryDx=0;entryDy=0;" parent="1" source="IncMXRNsBareLpS9UFTI-64" target="lCYEwEg9oiP1OCXS0-rL-43" edge="1">
          <mxGeometry x="0.25" y="20" width="80" relative="1" as="geometry">
            <mxPoint x="353" y="265" as="sourcePoint" />
            <mxPoint x="720" y="106" as="targetPoint" />
            <mxPoint as="offset" />
            <Array as="points">
              <mxPoint x="720" y="140" />
            </Array>
          </mxGeometry>
        </mxCell>
        <mxCell id="tEKyhjhBokwVdmgL0sZL-4" value="dispatch" style="html=1;verticalAlign=bottom;endArrow=block;edgeStyle=elbowEdgeStyle;elbow=vertical;curved=0;rounded=0;textOpacity=0;" parent="1" source="IncMXRNsBareLpS9UFTI-14" target="lCYEwEg9oiP1OCXS0-rL-43" edge="1">
          <mxGeometry x="0.25" y="20" width="80" relative="1" as="geometry">
            <mxPoint x="80" y="190" as="sourcePoint" />
            <mxPoint x="80" y="142" as="targetPoint" />
            <mxPoint as="offset" />
            <Array as="points">
              <mxPoint x="-120" y="330" />
              <mxPoint x="80" y="160" />
              <mxPoint x="557" y="150" />
            </Array>
          </mxGeometry>
        </mxCell>
        <mxCell id="WuYdYey0Z6FS718gPj1q-1" value="&lt;p style=&quot;margin:0px;margin-top:4px;text-align:center;&quot;&gt;&lt;i&gt;&amp;lt;&amp;lt;Interface&amp;gt;&amp;gt;&lt;/i&gt;&lt;/p&gt;&lt;p style=&quot;margin:0px;margin-top:4px;text-align:center;&quot;&gt;&lt;b&gt;Subject&lt;/b&gt;&lt;/p&gt;&lt;hr size=&quot;1&quot;&gt;&lt;p style=&quot;margin:0px;margin-left:4px;&quot;&gt;+ findShortestPath(Type): List&amp;lt;Vertex&amp;gt;&lt;br&gt;&lt;/p&gt;" style="verticalAlign=top;align=left;overflow=fill;fontSize=12;fontFamily=Helvetica;html=1;whiteSpace=wrap;" vertex="1" parent="1">
          <mxGeometry x="-180" y="404" width="240" height="78" as="geometry" />
        </mxCell>
        <mxCell id="WuYdYey0Z6FS718gPj1q-2" value="&lt;p style=&quot;margin:0px;margin-top:4px;text-align:center;&quot;&gt;&lt;i&gt;&amp;lt;&amp;lt;Interface&amp;gt;&amp;gt;&lt;/i&gt;&lt;/p&gt;&lt;p style=&quot;margin:0px;margin-top:4px;text-align:center;&quot;&gt;&lt;b&gt;Observer&lt;/b&gt;&lt;/p&gt;&lt;hr size=&quot;1&quot;&gt;&lt;p style=&quot;margin:0px;margin-left:4px;&quot;&gt;+ findShortestPath(Type): List&amp;lt;Vertex&amp;gt;&lt;br&gt;&lt;/p&gt;" style="verticalAlign=top;align=left;overflow=fill;fontSize=12;fontFamily=Helvetica;html=1;whiteSpace=wrap;" vertex="1" parent="1">
          <mxGeometry x="160" y="1600" width="240" height="78" as="geometry" />
        </mxCell>
        <mxCell id="WuYdYey0Z6FS718gPj1q-3" value="" style="endArrow=block;dashed=1;endFill=0;endSize=12;html=1;rounded=0;" edge="1" parent="1" source="lCYEwEg9oiP1OCXS0-rL-43" target="WuYdYey0Z6FS718gPj1q-1">
          <mxGeometry width="160" relative="1" as="geometry">
            <mxPoint x="23" y="492" as="sourcePoint" />
            <mxPoint x="-60" y="410" as="targetPoint" />
          </mxGeometry>
        </mxCell>
        <mxCell id="WuYdYey0Z6FS718gPj1q-5" value="" style="endArrow=block;dashed=1;endFill=0;endSize=12;html=1;rounded=0;" edge="1" parent="1" source="lCYEwEg9oiP1OCXS0-rL-48" target="WuYdYey0Z6FS718gPj1q-2">
          <mxGeometry width="160" relative="1" as="geometry">
            <mxPoint x="-210" y="510" as="sourcePoint" />
            <mxPoint x="-290" y="552.29" as="targetPoint" />
            <Array as="points">
              <mxPoint x="-380" y="-159" />
              <mxPoint x="-380" y="1039" />
            </Array>
          </mxGeometry>
        </mxCell>
        <mxCell id="WuYdYey0Z6FS718gPj1q-6" value="VertexController" style="swimlane;fontStyle=1;align=center;verticalAlign=top;childLayout=stackLayout;horizontal=1;startSize=26;horizontalStack=0;resizeParent=1;resizeParentMax=0;resizeLast=0;collapsible=1;marginBottom=0;whiteSpace=wrap;html=1;" vertex="1" parent="1">
          <mxGeometry x="-310" y="850" width="200" height="164" as="geometry" />
        </mxCell>
        <mxCell id="WuYdYey0Z6FS718gPj1q-7" value="- model: Vertex" style="text;strokeColor=none;fillColor=none;align=left;verticalAlign=top;spacingLeft=4;spacingRight=4;overflow=hidden;rotatable=0;points=[[0,0.5],[1,0.5]];portConstraint=eastwest;whiteSpace=wrap;html=1;" vertex="1" parent="WuYdYey0Z6FS718gPj1q-6">
          <mxGeometry y="26" width="200" height="26" as="geometry" />
        </mxCell>
        <mxCell id="WuYdYey0Z6FS718gPj1q-32" value="- view: VertexView" style="text;strokeColor=none;fillColor=none;align=left;verticalAlign=top;spacingLeft=4;spacingRight=4;overflow=hidden;rotatable=0;points=[[0,0.5],[1,0.5]];portConstraint=eastwest;whiteSpace=wrap;html=1;" vertex="1" parent="WuYdYey0Z6FS718gPj1q-6">
          <mxGeometry y="52" width="200" height="26" as="geometry" />
        </mxCell>
        <mxCell id="WuYdYey0Z6FS718gPj1q-8" value="" style="line;strokeWidth=1;fillColor=none;align=left;verticalAlign=middle;spacingTop=-1;spacingLeft=3;spacingRight=3;rotatable=0;labelPosition=right;points=[];portConstraint=eastwest;strokeColor=inherit;" vertex="1" parent="WuYdYey0Z6FS718gPj1q-6">
          <mxGeometry y="78" width="200" height="8" as="geometry" />
        </mxCell>
        <mxCell id="WuYdYey0Z6FS718gPj1q-9" value="+ updateView(Graphics2D g): void" style="text;strokeColor=none;fillColor=none;align=left;verticalAlign=top;spacingLeft=4;spacingRight=4;overflow=hidden;rotatable=0;points=[[0,0.5],[1,0.5]];portConstraint=eastwest;whiteSpace=wrap;html=1;" vertex="1" parent="WuYdYey0Z6FS718gPj1q-6">
          <mxGeometry y="86" width="200" height="26" as="geometry" />
        </mxCell>
        <mxCell id="WuYdYey0Z6FS718gPj1q-37" value="+ move(int x, int y): void" style="text;strokeColor=none;fillColor=none;align=left;verticalAlign=top;spacingLeft=4;spacingRight=4;overflow=hidden;rotatable=0;points=[[0,0.5],[1,0.5]];portConstraint=eastwest;whiteSpace=wrap;html=1;" vertex="1" parent="WuYdYey0Z6FS718gPj1q-6">
          <mxGeometry y="112" width="200" height="26" as="geometry" />
        </mxCell>
        <mxCell id="WuYdYey0Z6FS718gPj1q-38" value="+ isClick(Point location): void" style="text;strokeColor=none;fillColor=none;align=left;verticalAlign=top;spacingLeft=4;spacingRight=4;overflow=hidden;rotatable=0;points=[[0,0.5],[1,0.5]];portConstraint=eastwest;whiteSpace=wrap;html=1;" vertex="1" parent="WuYdYey0Z6FS718gPj1q-6">
          <mxGeometry y="138" width="200" height="26" as="geometry" />
        </mxCell>
        <mxCell id="WuYdYey0Z6FS718gPj1q-10" value="VertexView" style="swimlane;fontStyle=1;align=center;verticalAlign=top;childLayout=stackLayout;horizontal=1;startSize=26;horizontalStack=0;resizeParent=1;resizeParentMax=0;resizeLast=0;collapsible=1;marginBottom=0;whiteSpace=wrap;html=1;" vertex="1" parent="1">
          <mxGeometry x="-250" y="710" width="160" height="60" as="geometry" />
        </mxCell>
        <mxCell id="WuYdYey0Z6FS718gPj1q-12" value="" style="line;strokeWidth=1;fillColor=none;align=left;verticalAlign=middle;spacingTop=-1;spacingLeft=3;spacingRight=3;rotatable=0;labelPosition=right;points=[];portConstraint=eastwest;strokeColor=inherit;" vertex="1" parent="WuYdYey0Z6FS718gPj1q-10">
          <mxGeometry y="26" width="160" height="8" as="geometry" />
        </mxCell>
        <mxCell id="WuYdYey0Z6FS718gPj1q-13" value="+ drawPoint(): void" style="text;strokeColor=none;fillColor=none;align=left;verticalAlign=top;spacingLeft=4;spacingRight=4;overflow=hidden;rotatable=0;points=[[0,0.5],[1,0.5]];portConstraint=eastwest;whiteSpace=wrap;html=1;" vertex="1" parent="WuYdYey0Z6FS718gPj1q-10">
          <mxGeometry y="34" width="160" height="26" as="geometry" />
        </mxCell>
        <mxCell id="WuYdYey0Z6FS718gPj1q-14" value="EdgeController" style="swimlane;fontStyle=1;align=center;verticalAlign=top;childLayout=stackLayout;horizontal=1;startSize=26;horizontalStack=0;resizeParent=1;resizeParentMax=0;resizeLast=0;collapsible=1;marginBottom=0;whiteSpace=wrap;html=1;" vertex="1" parent="1">
          <mxGeometry x="730" y="740" width="550" height="138" as="geometry" />
        </mxCell>
        <mxCell id="WuYdYey0Z6FS718gPj1q-15" value="- model: Edge" style="text;strokeColor=none;fillColor=none;align=left;verticalAlign=top;spacingLeft=4;spacingRight=4;overflow=hidden;rotatable=0;points=[[0,0.5],[1,0.5]];portConstraint=eastwest;whiteSpace=wrap;html=1;" vertex="1" parent="WuYdYey0Z6FS718gPj1q-14">
          <mxGeometry y="26" width="550" height="26" as="geometry" />
        </mxCell>
        <mxCell id="WuYdYey0Z6FS718gPj1q-36" value="- view: EdgeView" style="text;strokeColor=none;fillColor=none;align=left;verticalAlign=top;spacingLeft=4;spacingRight=4;overflow=hidden;rotatable=0;points=[[0,0.5],[1,0.5]];portConstraint=eastwest;whiteSpace=wrap;html=1;" vertex="1" parent="WuYdYey0Z6FS718gPj1q-14">
          <mxGeometry y="52" width="550" height="26" as="geometry" />
        </mxCell>
        <mxCell id="WuYdYey0Z6FS718gPj1q-16" value="" style="line;strokeWidth=1;fillColor=none;align=left;verticalAlign=middle;spacingTop=-1;spacingLeft=3;spacingRight=3;rotatable=0;labelPosition=right;points=[];portConstraint=eastwest;strokeColor=inherit;" vertex="1" parent="WuYdYey0Z6FS718gPj1q-14">
          <mxGeometry y="78" width="550" height="8" as="geometry" />
        </mxCell>
        <mxCell id="WuYdYey0Z6FS718gPj1q-17" value="+ updateView(Graphics2D g, Color color): void" style="text;strokeColor=none;fillColor=none;align=left;verticalAlign=top;spacingLeft=4;spacingRight=4;overflow=hidden;rotatable=0;points=[[0,0.5],[1,0.5]];portConstraint=eastwest;whiteSpace=wrap;html=1;" vertex="1" parent="WuYdYey0Z6FS718gPj1q-14">
          <mxGeometry y="86" width="550" height="26" as="geometry" />
        </mxCell>
        <mxCell id="WuYdYey0Z6FS718gPj1q-46" value="+ drawLine(Graphics2D g, Color colorPoint, int stX, int stY, int desX, int desY, String weight): void" style="text;strokeColor=none;fillColor=none;align=left;verticalAlign=top;spacingLeft=4;spacingRight=4;overflow=hidden;rotatable=0;points=[[0,0.5],[1,0.5]];portConstraint=eastwest;whiteSpace=wrap;html=1;" vertex="1" parent="WuYdYey0Z6FS718gPj1q-14">
          <mxGeometry y="112" width="550" height="26" as="geometry" />
        </mxCell>
        <mxCell id="WuYdYey0Z6FS718gPj1q-18" value="EdgeView" style="swimlane;fontStyle=1;align=center;verticalAlign=top;childLayout=stackLayout;horizontal=1;startSize=26;horizontalStack=0;resizeParent=1;resizeParentMax=0;resizeLast=0;collapsible=1;marginBottom=0;whiteSpace=wrap;html=1;" vertex="1" parent="1">
          <mxGeometry x="760" y="940" width="160" height="86" as="geometry" />
        </mxCell>
        <mxCell id="WuYdYey0Z6FS718gPj1q-19" value="+ field: type" style="text;strokeColor=none;fillColor=none;align=left;verticalAlign=top;spacingLeft=4;spacingRight=4;overflow=hidden;rotatable=0;points=[[0,0.5],[1,0.5]];portConstraint=eastwest;whiteSpace=wrap;html=1;" vertex="1" parent="WuYdYey0Z6FS718gPj1q-18">
          <mxGeometry y="26" width="160" height="26" as="geometry" />
        </mxCell>
        <mxCell id="WuYdYey0Z6FS718gPj1q-20" value="" style="line;strokeWidth=1;fillColor=none;align=left;verticalAlign=middle;spacingTop=-1;spacingLeft=3;spacingRight=3;rotatable=0;labelPosition=right;points=[];portConstraint=eastwest;strokeColor=inherit;" vertex="1" parent="WuYdYey0Z6FS718gPj1q-18">
          <mxGeometry y="52" width="160" height="8" as="geometry" />
        </mxCell>
        <mxCell id="WuYdYey0Z6FS718gPj1q-21" value="+ drawPoint(): void" style="text;strokeColor=none;fillColor=none;align=left;verticalAlign=top;spacingLeft=4;spacingRight=4;overflow=hidden;rotatable=0;points=[[0,0.5],[1,0.5]];portConstraint=eastwest;whiteSpace=wrap;html=1;" vertex="1" parent="WuYdYey0Z6FS718gPj1q-18">
          <mxGeometry y="60" width="160" height="26" as="geometry" />
        </mxCell>
        <mxCell id="WuYdYey0Z6FS718gPj1q-30" value="" style="endArrow=block;dashed=1;endFill=0;endSize=12;html=1;rounded=0;" edge="1" parent="1" source="yN8j2u117YADS8AMJBHa-5" target="WuYdYey0Z6FS718gPj1q-2">
          <mxGeometry width="160" relative="1" as="geometry">
            <mxPoint x="410" y="730" as="sourcePoint" />
            <mxPoint x="570" y="730" as="targetPoint" />
            <Array as="points">
              <mxPoint x="1320" y="1039" />
            </Array>
          </mxGeometry>
        </mxCell>
        <mxCell id="WuYdYey0Z6FS718gPj1q-31" value="dispatch" style="html=1;verticalAlign=bottom;endArrow=block;edgeStyle=elbowEdgeStyle;elbow=vertical;curved=0;rounded=0;textOpacity=0;" edge="1" parent="1" source="WuYdYey0Z6FS718gPj1q-6" target="lCYEwEg9oiP1OCXS0-rL-22">
          <mxGeometry x="0.25" y="20" width="80" relative="1" as="geometry">
            <mxPoint x="-100" y="936" as="sourcePoint" />
            <mxPoint x="-100" y="1050" as="targetPoint" />
            <mxPoint as="offset" />
            <Array as="points">
              <mxPoint x="-100" y="981" />
              <mxPoint x="-250" y="901" />
              <mxPoint x="220" y="741" />
              <mxPoint x="140" y="871" />
              <mxPoint x="230" y="730" />
            </Array>
          </mxGeometry>
        </mxCell>
        <mxCell id="WuYdYey0Z6FS718gPj1q-33" value="dispatch" style="html=1;verticalAlign=bottom;endArrow=block;edgeStyle=elbowEdgeStyle;elbow=vertical;curved=0;rounded=0;textOpacity=0;" edge="1" parent="1" source="WuYdYey0Z6FS718gPj1q-6" target="WuYdYey0Z6FS718gPj1q-10">
          <mxGeometry x="0.25" y="20" width="80" relative="1" as="geometry">
            <mxPoint x="-220" y="972" as="sourcePoint" />
            <mxPoint y="946" as="targetPoint" />
            <mxPoint as="offset" />
            <Array as="points">
              <mxPoint x="-280" y="690" />
              <mxPoint x="-90" y="991" />
              <mxPoint x="-240" y="911" />
              <mxPoint x="230" y="751" />
              <mxPoint x="150" y="881" />
              <mxPoint x="240" y="740" />
            </Array>
          </mxGeometry>
        </mxCell>
        <mxCell id="WuYdYey0Z6FS718gPj1q-34" value="dispatch" style="html=1;verticalAlign=bottom;endArrow=block;edgeStyle=elbowEdgeStyle;elbow=vertical;curved=0;rounded=0;textOpacity=0;" edge="1" parent="1" source="WuYdYey0Z6FS718gPj1q-14" target="lCYEwEg9oiP1OCXS0-rL-26">
          <mxGeometry x="0.25" y="20" width="80" relative="1" as="geometry">
            <mxPoint x="640" y="710" as="sourcePoint" />
            <mxPoint x="640" y="795" as="targetPoint" />
            <mxPoint as="offset" />
            <Array as="points">
              <mxPoint x="570" y="790" />
              <mxPoint x="640" y="755" />
              <mxPoint x="490" y="675" />
              <mxPoint x="960" y="515" />
              <mxPoint x="880" y="645" />
              <mxPoint x="970" y="504" />
            </Array>
          </mxGeometry>
        </mxCell>
        <mxCell id="WuYdYey0Z6FS718gPj1q-35" value="dispatch" style="html=1;verticalAlign=bottom;endArrow=block;edgeStyle=elbowEdgeStyle;elbow=vertical;curved=0;rounded=0;textOpacity=0;" edge="1" parent="1" source="WuYdYey0Z6FS718gPj1q-14" target="WuYdYey0Z6FS718gPj1q-18">
          <mxGeometry x="0.25" y="20" width="80" relative="1" as="geometry">
            <mxPoint x="800" y="980" as="sourcePoint" />
            <mxPoint x="750" y="900" as="targetPoint" />
            <mxPoint as="offset" />
            <Array as="points">
              <mxPoint x="720" y="820" />
              <mxPoint x="660" y="980" />
              <mxPoint x="510" y="900" />
              <mxPoint x="980" y="740" />
              <mxPoint x="900" y="870" />
              <mxPoint x="990" y="729" />
            </Array>
          </mxGeometry>
        </mxCell>
      </root>
    </mxGraphModel>
  </diagram>
  <diagram id="sVncIdphCHsNY9BFrPPg" name="Trang-2">
    <mxGraphModel dx="654" dy="565" grid="1" gridSize="10" guides="1" tooltips="1" connect="1" arrows="1" fold="1" page="1" pageScale="1" pageWidth="827" pageHeight="1169" math="0" shadow="0">
      <root>
        <mxCell id="0" />
        <mxCell id="1" parent="0" />
      </root>
    </mxGraphModel>
  </diagram>
  <diagram id="Vw0JTdpLXx9ORPqJTfJN" name="Trang-3">
    <mxGraphModel dx="1050" dy="491" grid="1" gridSize="10" guides="1" tooltips="1" connect="1" arrows="1" fold="1" page="1" pageScale="1" pageWidth="827" pageHeight="1169" math="0" shadow="0">
      <root>
        <mxCell id="0" />
        <mxCell id="1" parent="0" />
      </root>
    </mxGraphModel>
  </diagram>
</mxfile>
